<?xml version="1.0" standalone="no"?>
<!DOCTYPE svg PUBLIC "-//W3C//DTD SVG 20010904//EN"
 "http://www.w3.org/TR/2001/REC-SVG-20010904/DTD/svg10.dtd">
<svg version="1.0" xmlns="http://www.w3.org/2000/svg"
 width="161.000000pt" height="161.000000pt" viewBox="0 0 161.000000 161.000000"
 preserveAspectRatio="xMidYMid meet">
<metadata>
Created by potrace 1.11, written by Peter Selinger 2001-2013
</metadata>
<g transform="translate(0.000000,161.000000) scale(0.100000,-0.100000)"
fill="#000000" stroke="none">
<path d="M233 1310 c-49 -22 -134 -98 -164 -146 -26 -43 -28 -93 -4 -110 11
-8 23 -14 27 -14 5 0 34 28 66 61 51 55 101 89 132 89 37 0 31 -102 -25 -451
-51 -317 -47 -359 38 -359 72 0 77 10 107 190 64 393 172 610 301 610 74 0 76
-50 9 -420 -59 -333 -55 -380 38 -380 49 0 77 29 87 93 57 375 115 556 210
654 43 44 57 53 86 53 19 0 40 -5 47 -12 21 -21 13 -100 -30 -294 -53 -241
-57 -336 -16 -406 73 -123 260 -119 380 10 52 55 66 91 52 131 -14 40 -40 37
-81 -9 -71 -79 -150 -103 -193 -60 -30 30 -26 90 25 328 50 235 55 313 25 379
-26 59 -69 83 -145 83 -108 0 -204 -66 -258 -176 l-22 -45 -12 67 c-20 111
-65 154 -164 154 -104 0 -189 -62 -257 -188 l-31 -57 -1 78 c0 86 -14 124 -54
151 -35 22 -120 20 -173 -4z"/>
</g>
</svg>
